 <svg version="1.0" xmlns="http://www.w3.org/2000/svg" width="700.000000pt" height="302.000000pt" viewBox="0 0 700.000000 302.000000" preserveAspectRatio="xMidYMid meet">
<metadata>
Created by potrace 1.12, written by Peter Selinger 2001-2015
</metadata>
<g transform="translate(0.000000,302.000000) scale(0.100000,-0.100000)" fill="#000000" stroke="none">
<path d="M3865 2303 c-16 -2 -66 -22 -111 -43 -99 -48 -224 -164 -304 -284
-49 -74 -180 -331 -180 -354 0 -11 -24 -21 -115 -47 -88 -25 -176 -67 -216
-103 l-36 -32 -6 71 c-8 94 -38 155 -97 194 -43 29 -50 30 -150 30 -98 0 -109
-2 -159 -30 -29 -16 -80 -59 -113 -95 l-60 -65 7 75 c8 87 7 85 92 213 77 115
103 179 103 248 0 89 -75 199 -136 199 -46 0 -75 -33 -134 -155 -95 -195 -173
-477 -229 -825 l-11 -65 -107 -107 c-104 -102 -143 -128 -178 -114 -21 8 -19
52 9 170 78 321 75 431 -15 499 -103 77 -295 76 -394 -3 -21 -16 -39 -30 -41
-30 -2 0 -19 25 -39 56 -40 62 -91 92 -125 74 -44 -24 -121 -166 -159 -295
-25 -87 -38 -202 -47 -420 -5 -144 -4 -179 11 -228 10 -35 24 -61 36 -68 31
-16 89 -2 160 39 73 43 93 78 77 141 -47 194 -28 315 72 470 69 107 162 149
223 101 32 -25 35 -67 12 -170 -48 -212 -54 -390 -16 -473 27 -62 53 -80 120
-85 54 -4 63 -1 177 58 65 34 137 79 160 101 22 22 43 36 47 33 4 -4 7 -35 7
-68 1 -82 27 -142 68 -151 57 -12 154 29 188 80 13 20 18 61 23 190 3 92 11
169 17 175 7 7 21 -13 44 -67 122 -277 206 -361 353 -351 90 5 166 45 253 132
83 84 123 158 131 244 9 97 -28 96 -106 -2 -64 -80 -143 -141 -202 -156 -87
-22 -165 34 -205 146 -23 66 -17 80 41 86 69 8 184 69 237 126 42 45 46 47 57
29 14 -21 55 -21 194 3 92 16 102 11 88 -46 -5 -21 -19 -76 -30 -121 -11 -45
-26 -132 -33 -193 -27 -245 37 -320 201 -237 95 47 104 69 113 282 4 93 12
194 18 224 5 30 10 70 10 88 l0 34 215 -3 c145 -2 218 -7 226 -15 8 -8 6 -27
-9 -75 -81 -261 -89 -382 -32 -476 24 -38 88 -71 140 -72 52 0 141 25 210 60
83 42 94 41 86 -12 -37 -225 -46 -432 -22 -489 34 -82 137 -127 180 -80 18 20
39 105 50 206 4 33 11 83 16 110 6 28 24 142 40 255 17 113 38 232 46 265 40
157 104 283 183 358 91 87 176 100 237 36 28 -29 29 -34 28 -117 -1 -138 -45
-246 -131 -322 -43 -37 -120 -70 -164 -70 -45 0 -54 -101 -14 -149 80 -95 378
-97 573 -4 41 19 76 32 79 29 3 -3 0 -42 -6 -88 -34 -257 -39 -364 -20 -415
15 -40 77 -101 115 -113 69 -23 99 18 119 166 8 60 20 138 25 174 6 36 17 108
25 160 43 297 59 377 100 486 86 229 240 353 353 284 64 -39 77 -119 42 -255
-24 -95 -54 -148 -113 -202 -42 -39 -121 -73 -168 -73 -36 0 -52 -80 -27 -134
23 -52 109 -86 218 -86 104 0 266 25 331 50 70 28 168 99 213 153 69 84 112
221 83 261 -19 26 -42 12 -97 -59 -102 -128 -272 -233 -394 -242 -36 -3 -66
-2 -66 3 0 5 23 23 51 39 144 84 269 300 269 462 0 61 -28 150 -64 202 -81
117 -305 135 -448 36 -34 -24 -66 -41 -70 -39 -5 3 -14 20 -22 38 -7 18 -28
49 -46 69 -26 30 -39 37 -69 37 -39 0 -57 -13 -81 -58 -25 -50 -124 -333 -159
-457 l-36 -129 -75 -64 c-101 -85 -202 -133 -292 -140 -37 -2 -68 -2 -68 2 0
3 29 24 65 47 36 22 85 64 110 92 57 65 121 194 136 272 13 70 6 178 -14 227
-22 52 -74 106 -131 136 -44 22 -64 26 -141 27 -103 0 -160 -17 -229 -70 -24
-18 -48 -30 -53 -26 -6 3 -18 22 -28 41 -9 19 -31 50 -48 68 -57 59 -134 35
-154 -47 -3 -14 -17 -53 -31 -86 -37 -90 -98 -269 -123 -365 -21 -76 -29 -90
-73 -134 -142 -138 -216 -141 -216 -9 0 56 20 123 114 382 56 154 106 360 106
436 0 61 -34 187 -63 238 -28 47 -103 103 -167 124 -40 13 -171 23 -215 16z
m101 -278 c37 -24 64 -90 64 -159 0 -66 -36 -232 -53 -243 -16 -10 -451 -3
-461 7 -6 6 5 46 27 102 42 106 120 217 184 262 78 54 183 68 239 31z m-1362
-506 c64 -50 6 -160 -112 -210 -23 -10 -72 -21 -107 -25 -59 -6 -65 -5 -65 12
0 11 16 46 36 79 86 144 179 198 248 144z"></path>
<path d="M649 2263 c-71 -64 -127 -204 -225 -563 -8 -30 -19 -68 -23 -85 -5
-16 -23 -97 -40 -180 -18 -82 -36 -166 -41 -185 -5 -19 -14 -87 -20 -150 -13
-125 -4 -209 25 -254 23 -35 81 -59 151 -64 99 -7 99 -7 113 165 19 236 58
479 122 750 20 84 65 302 80 383 15 87 11 165 -12 194 -31 40 -78 36 -130 -11z"></path>
</g>
</svg>